<svg version="1.1" id="Layer_1" xmlns="http://www.w3.org/2000/svg" xmlns:xlink="http://www.w3.org/1999/xlink" x="0px" y="0px"
	 width="100%" viewBox="0 0 512 512" enable-background="new 0 0 512 512" xml:space="preserve">
<path fill="#000000" opacity="1.000000" stroke="none" 
	d="
M340.000000,513.000000 
	C228.193832,513.000000 116.887642,512.981140 5.581563,513.084900 
	C1.986161,513.088257 0.890883,512.519409 0.893781,508.583588 
	C1.017308,340.791290 1.016306,172.998886 0.894379,5.206591 
	C0.891674,1.484348 1.801572,0.910511 5.291464,0.912592 
	C173.083801,1.012664 340.876190,1.010852 508.668549,0.922604 
	C512.043762,0.920829 513.117065,1.330500 513.114014,5.166594 
	C512.981934,173.125504 512.985474,341.084534 513.099731,509.043488 
	C513.102112,512.553162 512.289612,513.098206 508.958191,513.090698 
	C452.805695,512.963928 396.652802,513.000000 340.000000,513.000000 
z"/>
<path fill="#E4540E" opacity="1.000000" stroke="none" 
	d="
M193.762207,157.369186 
	C194.396805,148.897430 199.248444,142.808365 203.570816,136.519485 
	C205.995178,132.992157 208.769806,129.705597 211.694595,126.176483 
	C218.017151,130.823227 224.673630,132.600693 232.379013,131.240402 
	C240.380463,129.827850 248.255508,128.185104 255.637817,124.668625 
	C257.216797,123.916489 258.846344,124.014122 260.494568,124.522446 
	C268.487915,126.987640 271.932190,125.312195 274.747192,117.582977 
	C275.146729,116.485931 275.483459,115.317673 276.175415,114.414375 
	C280.500366,108.768341 283.683746,102.754486 283.030823,95.316925 
	C282.957672,94.483910 283.644318,93.809708 284.666565,93.161850 
	C286.462280,94.823799 286.496460,97.005409 286.602631,99.131973 
	C287.297119,113.043449 287.035919,126.876900 282.928131,140.776077 
	C281.159760,145.322693 282.388611,149.670517 281.938782,154.295425 
	C280.683990,157.647186 277.836517,159.303482 275.777557,161.447174 
	C272.172791,165.200287 267.922638,168.268356 265.845184,173.307846 
	C265.551575,174.020081 264.539703,174.239014 263.339996,174.374084 
	C262.734131,174.368729 262.493347,174.346603 261.906006,174.223114 
	C260.078735,173.047852 258.582214,172.097946 256.457275,173.674530 
	C254.694168,174.143097 253.259689,174.465149 251.447571,174.093689 
	C250.659760,173.758057 250.396439,173.301590 249.996536,173.215057 
	C250.072510,173.915695 249.956421,174.418503 249.797760,175.260956 
	C249.596542,176.595825 249.044022,177.393097 248.246384,178.489777 
	C247.594711,179.469864 247.021576,179.999435 246.056061,180.701477 
	C244.974579,181.309372 244.179672,181.487411 242.940445,181.481140 
	C241.989014,181.377213 241.464432,181.245056 240.621246,180.824524 
	C236.679031,173.831390 236.668564,173.785110 228.565216,175.617233 
	C226.631302,176.054489 224.987183,175.477982 223.270981,174.878632 
	C218.298279,173.142014 213.263382,172.700806 208.190140,174.366760 
	C206.326660,174.978683 204.083008,175.226059 203.041718,173.824158 
	C200.246216,170.060577 195.542221,168.526611 192.820374,164.281281 
	C193.401001,161.906067 193.621124,159.828064 193.762207,157.369186 
z"/>
<path fill="#E95A0D" opacity="1.000000" stroke="none" 
	d="
M284.984711,92.763779 
	C285.002472,95.027687 284.824341,97.039444 285.028839,99.011536 
	C285.535156,103.894325 284.461212,108.085777 280.848602,111.674835 
	C278.067505,114.437828 276.749207,118.125816 276.124817,121.943779 
	C275.625916,124.994492 274.212128,126.649391 271.030029,127.039955 
	C266.936615,127.542366 262.874969,130.415131 258.850525,126.598824 
	C258.021393,125.812531 256.622406,126.719955 255.581223,127.227562 
	C249.470963,130.206482 243.127991,132.152634 236.307190,132.997482 
	C230.807587,133.678665 225.457703,136.445908 220.110672,132.413498 
	C219.361496,131.848511 217.829086,132.075775 216.720367,132.275543 
	C211.250214,133.261139 210.665359,132.633530 211.929626,126.402603 
	C212.002563,126.042427 211.996796,125.986580 212.024216,125.991859 
	C212.180923,125.851761 212.310196,125.706375 212.695892,125.421638 
	C213.286789,125.027168 213.621277,124.772057 214.082428,124.224312 
	C214.324829,123.762489 214.440536,123.593285 214.748138,123.183868 
	C215.427032,121.958115 216.091568,121.187225 217.575867,120.991089 
	C219.277817,120.155746 219.595581,118.551567 220.760437,117.185593 
	C221.028885,116.601692 221.202850,116.332985 221.726624,116.058548 
	C222.866135,115.170120 223.858231,114.449409 224.753693,113.197556 
	C229.045273,105.708626 235.776611,100.439102 239.853653,93.154190 
	C242.187622,88.983810 244.644287,84.963982 246.345322,80.390785 
	C248.455124,74.718605 250.539627,69.227974 250.017029,63.056034 
	C249.409958,55.886658 247.491440,49.193161 243.158417,42.952202 
	C246.796310,40.654030 249.701096,43.179611 252.335373,44.958405 
	C268.028320,55.555176 278.844788,69.804192 283.999268,88.562805 
	C284.691498,89.657707 284.423920,90.564537 284.683533,91.679733 
	C284.866608,92.145226 284.914764,92.319405 284.984711,92.763779 
z"/>
<path fill="#C42D0E" opacity="1.000000" stroke="none" 
	d="
M347.979736,292.733582 
	C333.114258,319.337799 310.951782,336.577789 281.894073,344.904419 
	C258.747864,351.537048 235.709854,350.112640 213.107666,342.579102 
	C206.172134,340.267426 199.419846,336.922516 193.151352,332.315063 
	C196.270584,327.878723 199.840988,326.630341 205.494736,328.039825 
	C212.280090,329.731384 219.372314,330.678925 226.392120,331.534882 
	C228.900513,331.840759 231.344360,331.214081 233.685486,330.277344 
	C235.168793,329.683838 236.080536,328.836548 236.125931,326.981812 
	C236.271347,321.040405 236.350098,321.042328 242.683075,319.896301 
	C245.925385,319.750824 247.808868,321.381287 249.569473,323.844238 
	C250.304153,324.743500 250.747559,325.442871 251.699265,326.039734 
	C252.303024,326.339417 252.651779,326.504700 253.290924,326.736328 
	C254.174088,326.907379 254.769409,326.955688 255.676056,326.677490 
	C264.268494,322.751312 269.600372,315.446716 275.912048,309.387756 
	C282.625275,302.943359 289.162720,296.292450 295.739105,289.693939 
	C297.411438,288.015961 299.044891,286.278656 302.076843,287.537140 
	C304.032776,289.932343 302.994232,291.653412 301.631409,293.555939 
	C297.671814,299.083557 293.111450,304.137939 289.140442,309.655243 
	C287.865173,311.427094 286.047668,313.089447 287.258453,315.406647 
	C288.594330,317.963226 291.043945,316.867981 293.077423,316.450348 
	C297.465393,315.549164 301.590973,314.707184 306.180389,316.632996 
	C310.076172,318.267731 314.121094,316.078339 317.255402,313.586395 
	C321.163910,310.478851 325.085602,307.431458 329.295715,304.747986 
	C332.882446,302.461823 335.419891,299.243286 337.622284,295.635651 
	C340.044464,291.667877 342.841339,290.914154 347.979736,292.733582 
z"/>
<path fill="#CC3310" opacity="1.000000" stroke="none" 
	d="
M348.418091,292.830200 
	C343.068146,293.263641 339.462463,295.550232 337.382416,300.331757 
	C336.215820,303.013397 333.847870,304.807648 331.367432,306.126648 
	C324.225983,309.924194 319.346649,317.221222 311.025238,319.171539 
	C309.404663,319.551361 307.551086,320.557434 306.196716,319.616577 
	C301.405060,316.287903 296.655182,318.132660 291.871826,319.280273 
	C289.209564,319.919006 286.362457,320.710846 284.793976,317.706085 
	C283.186310,314.626251 284.083282,311.841125 286.340790,309.050903 
	C291.710724,302.413940 296.740356,295.501617 301.996124,288.014404 
	C302.538055,286.307922 303.124847,285.335724 303.307892,283.855225 
	C303.487671,283.316559 303.576721,283.108032 303.833496,282.607239 
	C304.362579,281.774689 304.809204,281.301056 305.373535,280.522736 
	C305.672882,280.097504 305.796844,279.931854 306.114410,279.529175 
	C306.441071,279.141327 306.574066,278.990509 306.920044,278.633850 
	C307.279541,278.301422 307.426056,278.174835 307.783386,277.854797 
	C308.120667,277.519592 308.247040,277.377869 308.568878,277.029968 
	C308.898865,276.690796 309.033386,276.557800 309.373962,276.227661 
	C309.720581,275.899658 309.861084,275.768860 310.220154,275.441895 
	C310.591888,275.116486 310.745087,274.987183 311.141541,274.671967 
	C311.731262,274.248932 312.091492,274.034821 312.756897,273.684875 
	C313.259491,273.445435 313.469574,273.363159 314.010040,273.197327 
	C321.318085,270.640350 327.253479,267.168976 328.141052,258.417175 
	C329.134369,256.457306 330.034119,254.856125 332.099487,253.815155 
	C333.281036,253.566727 334.134827,253.392593 334.915833,253.647064 
	C343.872101,256.565247 350.000061,252.390808 355.064362,245.615875 
	C356.308105,243.951981 357.645782,242.279449 359.899567,243.125443 
	C362.576996,244.130493 361.266327,246.379913 360.964172,248.595032 
	C360.743378,264.602966 355.923370,278.946808 348.418091,292.830200 
z"/>
<path fill="#D0380F" opacity="1.000000" stroke="none" 
	d="
M159.215790,301.088776 
	C143.127441,278.237427 137.981827,252.776779 140.622101,225.214111 
	C142.218033,225.352570 143.008835,226.297180 143.003799,227.514297 
	C142.977554,233.849136 146.034943,239.762894 145.430588,246.188675 
	C145.214615,248.485107 145.165253,250.877594 145.818802,253.131927 
	C147.119553,257.618622 149.281235,260.626923 154.476624,262.203400 
	C162.578827,264.661926 170.145096,264.426758 177.817108,261.483917 
	C179.456589,260.855042 181.129913,261.400787 183.071243,260.711029 
	C187.172333,260.147949 189.215988,263.040497 191.363464,265.095917 
	C201.427567,274.728668 211.067749,284.788208 220.421600,295.118347 
	C221.655060,296.480621 223.109589,297.660889 222.886002,300.132080 
	C222.594696,300.964111 222.335526,301.669556 221.956512,301.681824 
	C216.807388,301.848389 212.562119,304.823822 207.805313,306.143829 
	C200.613297,308.139496 193.450027,306.865753 186.296692,305.494354 
	C183.959427,305.046265 181.893494,304.394501 179.926254,302.967255 
	C176.983261,300.832123 174.065247,300.357880 170.998108,303.335754 
	C167.449921,306.780640 163.953888,304.644958 160.323364,302.269745 
	C159.988190,302.084778 159.905136,302.063690 159.914658,302.021912 
	C159.730164,301.716675 159.574280,301.432312 159.215790,301.088776 
z"/>
<path fill="#CC3310" opacity="1.000000" stroke="none" 
	d="
M160.092865,302.407898 
	C164.098267,302.502899 168.080643,304.362946 171.360031,299.143402 
	C173.119919,296.342316 177.729324,298.184662 179.970001,300.036438 
	C183.800705,303.202240 188.337540,302.778107 192.513168,304.092407 
	C197.712997,305.729095 202.644089,302.993347 207.704330,303.916351 
	C208.164978,304.000366 208.991714,303.940063 209.125595,303.678772 
	C212.023972,298.023163 217.011322,300.088196 221.766129,300.072723 
	C223.961853,298.771210 225.765625,299.471558 227.020248,300.790314 
	C231.895905,305.915161 237.385559,310.446228 241.781708,316.032928 
	C242.804016,317.332092 244.023117,318.539642 243.200195,320.751007 
	C242.832153,321.357269 242.700027,321.881622 242.508636,321.904236 
	C237.540756,322.491028 236.639740,324.437408 239.999329,328.394409 
	C241.122879,329.717743 239.856308,330.820343 238.428116,331.320343 
	C234.349274,332.748291 230.254410,334.775299 225.861725,333.906677 
	C218.264771,332.404419 210.300858,332.636139 203.039276,329.852386 
	C199.011185,328.308197 197.099533,332.580475 193.367584,331.995483 
	C192.985123,332.010406 193.000183,331.999695 192.995163,332.006714 
	C189.512360,329.005493 185.643234,326.583405 181.345612,324.186707 
	C181.084976,323.960632 181.026413,323.987518 181.023361,323.955444 
	C180.844269,323.779816 180.668243,323.636261 180.246765,323.256409 
	C180.001312,323.020111 179.987488,323.013306 179.984482,323.006256 
	C177.492828,319.435608 175.055176,315.816101 170.312912,314.209442 
	C166.761581,310.237091 163.479568,306.484039 160.092865,302.407898 
z"/>
<path fill="#DD4B0F" opacity="1.000000" stroke="none" 
	d="
M240.682678,179.820801 
	C241.465027,180.005447 241.930893,180.014786 242.746109,180.033173 
	C244.782059,182.921753 242.911133,184.718521 241.090469,186.486099 
	C231.342880,195.949371 221.748184,205.572510 211.748718,214.772568 
	C209.138474,217.174133 207.358246,220.812378 202.739426,220.873535 
	C200.941635,220.158966 199.431061,219.187744 199.380432,217.687714 
	C199.227264,213.150406 195.983475,211.991638 192.585983,211.064804 
	C177.891251,207.056015 163.321396,202.035461 147.678513,204.984589 
	C147.000656,205.112381 146.372452,204.838348 145.504959,204.252747 
	C144.388657,198.357040 148.302185,194.160950 150.159958,189.490814 
	C155.182373,176.865295 162.805252,165.659073 172.140594,155.255646 
	C176.239670,153.783447 176.889832,156.190750 176.988800,159.193329 
	C177.228668,166.472382 176.483002,173.776199 177.677505,181.464508 
	C178.210541,183.325241 178.604126,184.756302 179.025452,186.562195 
	C179.245132,187.197220 179.453583,187.443436 179.867447,187.827026 
	C180.056366,187.978394 179.997757,187.981735 180.024124,187.968079 
	C180.567017,189.414597 181.271698,190.810760 181.688248,192.657745 
	C182.371872,195.859604 184.498016,197.335709 186.930359,198.401413 
	C191.716599,200.498413 193.978210,199.004868 194.013336,193.820450 
	C194.035553,190.540894 194.016708,187.261078 193.984741,183.519440 
	C193.249619,182.165726 193.583664,181.115891 193.531357,179.757782 
	C195.482788,177.111832 197.029999,178.467255 198.368103,180.023926 
	C199.330261,181.143265 200.078415,182.575134 200.471283,183.926147 
	C202.341476,190.357651 209.035492,191.129120 213.132523,194.920746 
	C214.322113,196.021652 216.472168,195.683823 217.837051,194.657913 
	C223.188934,190.635178 229.981125,188.720108 234.265808,183.071762 
	C235.645599,181.252808 237.307571,178.933655 240.682678,179.820801 
z"/>
<path fill="#DE9C12" opacity="1.000000" stroke="none" 
	d="
M415.661774,393.129883 
	C419.073303,386.640076 423.593658,381.238678 427.963409,375.320526 
	C432.834015,373.870850 437.626801,374.772339 442.380493,374.521973 
	C444.202911,374.425964 444.534790,375.648926 444.693817,377.540955 
	C440.834381,386.122833 434.388641,392.573517 429.196686,399.888000 
	C426.261810,404.022705 425.085785,406.680359 429.047791,410.354156 
	C430.186157,411.409729 430.799042,413.031982 431.824738,414.704895 
	C433.474335,418.274384 434.698303,421.611267 436.954620,424.529968 
	C439.106659,427.313751 438.534637,431.481934 435.783417,433.350861 
	C433.652496,434.798431 431.804260,436.829681 428.797119,437.181824 
	C424.659302,431.182770 420.867310,425.393677 417.019440,419.641937 
	C416.093262,418.257538 415.361755,417.274292 413.920532,419.617859 
	C411.597260,423.395752 408.716827,426.830994 405.899780,430.721191 
	C402.846619,433.427094 399.920441,435.451172 395.815643,435.301178 
	C391.889587,435.157715 389.106415,433.922119 388.028717,429.427429 
	C392.893036,420.684509 398.992523,413.216400 405.018494,405.273651 
	C405.472015,401.586334 403.185455,399.114655 402.101013,396.226105 
	C400.381592,391.646393 403.327362,385.089447 408.208832,383.769043 
	C409.315002,385.092468 410.756042,385.678955 411.022949,387.528381 
	C411.495850,388.498077 412.047821,389.023895 412.798096,389.753204 
	C413.010803,389.943726 413.069702,389.963898 413.057007,389.992310 
	C413.910645,391.024719 413.869995,392.675140 415.661774,393.129883 
z"/>
<path fill="#DC450F" opacity="1.000000" stroke="none" 
	d="
M145.146606,204.310287 
	C147.960358,201.897659 150.998108,201.983719 154.365906,201.772568 
	C168.700134,200.873749 181.814011,205.633820 195.176514,209.427231 
	C196.438797,209.785568 197.787689,209.925186 199.104736,209.986298 
	C201.818130,210.112198 203.460968,210.861511 201.776505,213.915848 
	C200.626663,216.000809 201.449356,217.756363 202.839752,219.763306 
	C203.943893,221.482574 203.220322,222.648376 202.248550,224.075165 
	C201.906509,224.526688 201.773544,224.711319 201.420334,225.161682 
	C201.040161,225.596985 200.880264,225.766541 200.464096,226.182556 
	C200.024963,226.587738 199.842102,226.746490 199.035370,227.320038 
	C198.172897,227.828659 197.934280,227.922470 197.315994,228.103485 
	C196.675797,228.213242 196.415298,228.235794 195.762207,228.268311 
	C190.796631,229.287537 187.582825,232.671997 183.980545,235.206345 
	C178.769714,238.872406 173.534775,238.970093 167.883636,237.146988 
	C166.616440,236.738159 165.330643,235.870132 164.086853,235.985489 
	C155.142899,236.815125 150.823578,230.373260 146.127716,224.648956 
	C142.503159,220.230560 144.310471,214.809601 143.935760,209.404175 
	C144.010345,208.545502 144.031601,208.090286 144.119049,207.299744 
	C144.309402,206.783279 144.433578,206.602127 144.756592,206.158340 
	C144.992828,205.470596 145.030258,205.045517 145.146606,204.310287 
z"/>
<path fill="#DC450F" opacity="1.000000" stroke="none" 
	d="
M344.651367,184.802399 
	C349.082642,190.196625 351.534180,196.249939 353.873322,202.765778 
	C354.988739,204.381927 354.674530,206.083725 355.571899,207.720093 
	C355.803528,208.181946 355.857422,208.364014 355.936768,208.829742 
	C357.485107,212.790833 353.936127,214.070587 352.304413,215.872177 
	C350.097351,218.309113 348.562561,220.682755 347.961945,223.958755 
	C347.379333,227.136398 343.719849,229.249680 341.641724,227.295685 
	C335.299591,221.332382 329.142792,225.775986 323.145050,227.146118 
	C320.488892,227.752884 318.160553,228.286835 315.188110,227.599411 
	C314.157379,227.440872 314.898102,227.898163 314.321838,227.592484 
	C305.762451,223.052460 299.807251,215.786469 294.181335,208.198471 
	C293.819580,207.710602 294.144531,206.917679 294.548401,205.951782 
	C297.273010,204.128998 299.566223,202.489075 301.664825,200.294739 
	C305.152771,196.647705 309.597382,194.846756 314.940002,194.468262 
	C321.983002,193.969315 328.609253,190.827225 335.720947,190.170639 
	C337.446411,190.011337 338.469421,188.439651 339.377014,187.015228 
	C340.530731,185.204514 341.984009,184.003265 344.651367,184.802399 
z"/>
<path fill="#D63F10" opacity="1.000000" stroke="none" 
	d="
M143.681808,209.188843 
	C145.334320,211.182053 145.903488,213.630280 145.921661,216.117004 
	C145.947418,219.638443 148.208801,221.967087 149.587173,224.842468 
	C154.489426,235.069000 164.807953,232.643127 172.633270,235.768814 
	C175.811447,237.038284 179.255432,235.520447 182.377701,233.359192 
	C186.429688,230.554413 191.021027,228.528839 195.734818,226.102814 
	C197.856567,228.359467 196.442429,229.990417 194.929184,231.664871 
	C191.370956,235.602112 187.471359,239.201355 183.755035,242.981216 
	C180.482529,246.309708 179.402451,249.901474 181.629852,254.508087 
	C181.965042,254.963043 182.103134,255.141724 182.452423,255.585236 
	C182.803146,256.028076 182.942673,256.206055 183.282928,256.658783 
	C183.603699,257.126892 183.723755,257.320282 183.987427,257.824646 
	C184.647232,259.208130 184.957001,260.296204 184.161057,261.716797 
	C173.222855,267.348541 161.946487,267.577148 150.775284,264.415741 
	C145.837463,263.018341 143.273453,257.516022 143.382614,252.936859 
	C143.601532,243.753723 140.376343,234.998962 140.974945,225.415314 
	C140.999695,224.778214 141.033813,224.603226 141.144287,224.171906 
	C141.855927,220.871628 141.282410,217.783600 141.766327,214.363892 
	C142.119949,212.362274 141.625854,210.530762 143.681808,209.188843 
z"/>
<path fill="#E14E0F" opacity="1.000000" stroke="none" 
	d="
M261.691956,173.337906 
	C262.409088,172.944077 263.231781,172.950806 263.325409,172.692871 
	C265.541962,166.586868 270.999359,163.172180 274.873230,158.452744 
	C276.478271,156.497375 277.823486,154.990250 280.793823,154.944885 
	C281.488617,154.623047 281.848053,154.483734 282.516968,154.716217 
	C284.847076,163.393204 288.613525,170.798508 295.698303,176.356461 
	C297.471497,177.747498 299.095703,178.085220 301.479675,177.969635 
	C303.101013,174.744064 302.723969,171.460037 301.985413,168.287796 
	C300.074524,160.080292 301.341217,152.219864 304.124969,144.465836 
	C304.918243,142.256195 305.655273,139.944717 308.493927,139.656219 
	C311.597351,139.340805 313.608826,141.304245 314.812714,143.660431 
	C316.786713,147.523773 319.722168,150.249832 323.615723,152.736176 
	C323.923859,153.022934 324.030029,153.063660 324.009735,153.116760 
	C323.989441,153.169861 324.410095,153.400436 324.472656,153.631989 
	C325.690613,156.278915 326.846008,158.694305 328.023621,161.497360 
	C328.762939,162.843094 328.907837,164.029724 329.320251,165.108322 
	C330.746246,168.837860 330.013672,170.581726 326.270660,171.073029 
	C318.357269,172.111786 312.479950,176.917664 306.432281,181.398911 
	C303.102570,183.866196 299.802246,186.228012 295.758179,187.461212 
	C292.456482,188.468063 288.920410,189.225143 290.961639,194.465958 
	C292.039886,197.234344 289.584991,198.524078 286.506622,198.664185 
	C281.992249,198.080261 279.923431,194.502945 276.742310,191.918732 
	C276.206573,191.368042 275.880524,191.083603 275.291260,190.626877 
	C274.894775,190.296982 274.744568,190.158951 274.385376,189.806976 
	C274.045105,189.448990 273.913818,189.304916 273.593811,188.945587 
	C273.282562,188.588608 273.160034,188.446884 272.855774,188.096466 
	C272.552704,187.751648 272.431335,187.615509 272.139496,187.265656 
	C271.835205,186.924194 271.701355,186.796448 271.368652,186.472885 
	C270.638885,185.724228 270.100616,185.179642 269.196472,184.548615 
	C267.260529,182.147964 265.401886,180.116867 263.432281,178.181564 
	C262.163513,176.934875 260.690979,175.752396 261.691956,173.337906 
z"/>
<path fill="#DE9C12" opacity="1.000000" stroke="none" 
	d="
M227.680328,425.203125 
	C225.269211,420.013733 222.388245,416.740570 216.146240,417.798370 
	C213.476105,418.250854 213.099075,419.185516 212.887360,421.423798 
	C212.516998,425.339569 213.629639,429.346466 211.964783,433.558289 
	C207.027786,435.657379 202.326950,436.306580 197.673737,432.859314 
	C197.452789,424.532471 197.548859,416.585663 197.481003,408.639618 
	C197.465332,406.803528 197.626389,405.000061 198.028549,403.227875 
	C198.818436,399.747162 200.926102,398.597015 204.230255,399.905151 
	C205.762589,400.511841 207.461746,401.134003 208.550812,402.303314 
	C213.769531,407.906982 219.071915,406.208771 224.492508,402.789398 
	C225.196487,402.345306 225.967773,402.043793 227.153900,401.757019 
	C231.301010,401.135376 232.717026,397.925568 234.987625,395.153717 
	C239.439850,393.771790 241.711716,391.374298 241.038391,386.711029 
	C240.558365,383.386658 241.801071,380.924377 245.698959,380.028320 
	C253.049133,389.792175 253.023544,399.838348 247.158737,410.241608 
	C246.165390,412.003632 244.953354,413.348206 243.297745,413.736115 
	C239.475922,414.631531 238.908875,416.105377 241.475449,419.095306 
	C242.499390,420.288055 243.044556,421.891815 243.957611,423.633820 
	C244.293381,427.326416 242.907043,429.824005 239.642593,430.753876 
	C236.585281,431.624695 233.777725,431.029877 231.853699,428.096222 
	C230.950409,426.718994 229.959869,425.349945 227.680328,425.203125 
z"/>
<path fill="#DD4B0F" opacity="1.000000" stroke="none" 
	d="
M285.732849,197.353836 
	C288.693695,197.039017 290.304871,196.357590 288.237671,193.296967 
	C287.590332,192.338562 287.168488,191.230606 286.603882,190.213058 
	C285.163910,187.617966 285.194122,186.676575 288.848907,186.717194 
	C294.083252,186.775360 298.846527,184.074356 302.833008,181.059235 
	C306.933014,177.958252 311.016663,175.086472 315.518097,172.566544 
	C318.407684,170.948929 320.686157,168.585541 324.374329,168.971649 
	C330.060577,169.566956 328.156097,165.569534 328.046844,162.287659 
	C332.496643,167.853058 338.357361,172.793732 341.100159,180.013565 
	C341.799774,181.855225 344.608337,181.976288 344.961365,184.620361 
	C344.169403,185.530136 342.853363,185.924927 342.615295,186.665985 
	C340.552124,193.088745 335.048096,193.189453 329.860168,193.714447 
	C323.484497,194.359650 317.686310,197.385132 311.078308,197.531281 
	C307.077087,197.619781 303.256073,200.487564 301.689514,204.705566 
	C300.273254,208.518768 298.232727,207.971130 294.998962,206.215454 
	C294.125244,206.249680 293.905579,206.318283 292.981689,206.361511 
	C291.811401,206.200928 291.369324,206.009903 290.651001,205.551941 
	C288.464539,202.964676 284.710968,201.759506 285.732849,197.353836 
z"/>
<path fill="#D63F10" opacity="1.000000" stroke="none" 
	d="
M314.704376,226.286209 
	C320.143219,226.574448 325.322968,224.800476 329.256073,222.495331 
	C333.904266,219.771057 336.685516,221.378235 339.904266,223.543152 
	C344.800507,226.836319 345.069458,226.731674 346.081635,220.948273 
	C347.050140,215.414307 351.880798,212.950821 355.815613,209.406128 
	C359.513397,215.962463 359.795898,223.552322 360.909821,230.953430 
	C361.128937,232.409271 361.329224,233.867950 361.571014,235.730865 
	C361.477020,236.879990 361.492828,237.628281 361.563080,238.656281 
	C361.541931,242.066254 361.487854,245.197220 361.177917,248.642944 
	C359.695038,247.727814 361.895752,245.168182 359.651642,244.686478 
	C357.592926,244.244614 357.315582,246.632553 356.528351,247.965027 
	C352.021362,255.593262 341.606079,258.956329 333.286560,255.153351 
	C332.265503,254.535187 331.350800,254.080750 331.296204,253.237259 
	C330.744720,244.715302 324.652557,239.928482 319.165314,234.590378 
	C316.976471,232.460999 313.391022,230.746094 314.704376,226.286209 
z"/>
<path fill="#E5A215" opacity="1.000000" stroke="none" 
	d="
M66.662918,433.921997 
	C66.130470,415.027557 66.111656,396.100769 65.939804,377.175385 
	C65.914413,374.379700 67.072823,373.927216 69.486412,373.946716 
	C80.611092,374.036713 91.740463,373.809814 102.861038,374.040283 
	C109.230484,374.172272 118.003731,378.674164 119.965179,387.648438 
	C121.550575,393.455383 116.345734,397.212585 116.228073,402.569214 
	C116.019264,402.864685 116.058411,403.033264 115.974274,403.053467 
	C115.758095,403.217346 115.626038,403.361084 115.252731,403.670715 
	C115.011497,403.836609 114.653923,404.078278 114.440689,404.111450 
	C111.621422,407.625214 107.037605,409.283051 104.117775,407.106537 
	C100.959885,404.752533 97.716949,403.277283 93.829414,403.014008 
	C92.239136,402.906311 91.131050,401.930084 90.294510,400.140747 
	C90.054314,397.263519 91.552231,396.242493 93.746773,395.856781 
	C95.047745,395.628082 96.390770,395.676819 97.667625,395.313416 
	C98.810448,394.988190 99.938454,394.519501 99.945396,393.092773 
	C99.951073,391.925934 99.028870,391.311737 98.070572,391.053162 
	C94.344437,390.047668 90.554680,390.115753 86.800323,390.827179 
	C85.361328,391.099823 84.671120,392.366821 84.519157,393.767517 
	C84.321869,395.585938 83.883148,397.336670 83.208557,399.406921 
	C79.019073,402.692108 76.921753,402.510498 73.888077,398.939362 
	C72.976784,397.866577 72.414268,395.898834 70.599678,396.620789 
	C68.943298,397.279877 69.483253,399.185181 69.417953,400.607086 
	C69.161400,406.193817 69.805122,411.802185 68.927879,417.778687 
	C68.555054,421.738739 69.801712,425.226807 69.301308,428.803864 
	C69.034317,430.712433 69.192513,432.765503 66.662918,433.921997 
z"/>
<path fill="#DC9812" opacity="1.000000" stroke="none" 
	d="
M304.806580,374.587250 
	C308.704163,374.111328 312.374268,374.179016 316.019684,373.910980 
	C318.793701,373.706970 319.518127,375.101410 319.516418,377.434814 
	C319.502625,396.431702 319.495514,415.428589 319.464691,434.425446 
	C319.462524,435.760284 319.350586,437.033020 317.750916,437.670685 
	C312.686707,439.689484 302.364410,436.936127 299.147156,432.485504 
	C296.363770,428.635010 293.755859,424.657654 290.991089,420.398499 
	C292.462738,417.762604 295.245728,417.940186 297.410431,417.311188 
	C300.675629,416.362457 302.837097,414.634216 304.445190,411.419556 
	C304.550446,399.008057 304.407166,386.996979 304.806580,374.587250 
z"/>
<path fill="#DE9C12" opacity="1.000000" stroke="none" 
	d="
M304.681091,412.610413 
	C305.210602,416.376343 303.923523,418.488037 300.205627,419.039032 
	C297.337189,419.464111 295.002686,423.762787 291.249878,420.117493 
	C290.608124,419.592590 290.304443,419.124573 289.964691,418.355316 
	C289.744690,417.789642 289.538757,417.543610 289.116364,417.173889 
	C288.921875,417.031769 288.983307,417.012360 288.971130,417.042175 
	C288.787720,416.795776 288.579102,416.551422 288.142212,416.190796 
	C287.951355,416.042603 287.999268,416.000000 287.974213,416.020630 
	C287.581299,415.581818 287.511353,415.010803 287.161072,414.269592 
	C282.660706,410.392639 281.091522,404.616150 276.481018,400.865723 
	C274.577545,405.530640 276.209076,410.430786 274.974213,415.473083 
	C268.832550,417.017487 265.997925,415.390167 264.607758,409.795013 
	C264.091949,407.719025 263.361328,405.738983 262.547668,403.303711 
	C262.489014,394.718933 262.615906,386.590149 262.442017,378.467377 
	C262.378906,375.519135 263.095093,374.182556 266.299042,374.446289 
	C269.595398,374.717621 272.928101,374.440765 276.686340,374.741272 
	C282.904022,381.063843 287.155762,388.312256 292.013947,395.508270 
	C292.410583,396.363434 292.487305,396.960449 292.847839,397.743530 
	C293.058960,397.953339 293.013092,398.001831 293.024628,397.970642 
	C293.173798,398.108826 293.311432,398.278137 293.689880,398.669098 
	C293.930725,398.890717 294.089417,398.883484 294.094421,398.962738 
	C294.221924,399.183258 294.344421,399.324493 294.666138,399.663208 
	C294.865326,399.860687 295.074463,400.050049 295.064392,400.190765 
	C295.342621,400.669037 295.523102,401.058197 295.838867,401.726257 
	C296.067688,401.960388 296.012085,401.996582 296.025726,401.966370 
	C296.177521,402.107727 296.315704,402.279297 296.683838,402.688110 
	C296.913849,402.925354 297.063446,402.973175 297.040161,403.048157 
	C298.062042,404.106781 297.705170,406.061096 299.646149,406.794739 
	C300.238770,407.444275 300.599060,407.884521 301.022095,408.608582 
	C301.244995,409.186310 301.445190,409.449829 301.880310,409.837708 
	C302.075195,409.992554 302.014496,409.951050 302.035461,409.920837 
	C302.201263,410.180450 302.394501,410.433258 302.799347,410.824585 
	C303.100006,411.221832 303.244232,411.439026 303.576843,411.724426 
	C304.192078,411.735931 304.467377,411.905670 304.681091,412.610413 
z"/>
<path fill="#E5A215" opacity="1.000000" stroke="none" 
	d="
M245.930908,379.652283 
	C243.998001,382.651947 243.220139,385.361572 243.616302,389.051941 
	C244.047989,393.073181 241.549454,396.247253 236.444519,396.109924 
	C234.452209,396.063385 233.610245,394.810181 232.495636,393.807922 
	C228.139923,389.891144 222.783493,389.919769 217.546814,390.859985 
	C214.439926,391.417847 215.455795,394.516541 215.419189,396.711975 
	C215.380173,399.053009 216.080353,401.003418 218.778580,401.426178 
	C220.744934,401.734253 222.742188,401.519043 224.716187,401.684479 
	C226.485596,401.832764 228.437408,401.563416 229.796036,403.723938 
	C225.202515,405.268799 220.429672,406.612946 215.609299,407.756744 
	C213.275665,408.310486 210.978333,408.135345 209.282364,405.979492 
	C208.779648,405.340424 208.139328,404.651367 207.413635,404.375153 
	C205.060257,403.479218 203.170105,400.196472 200.373993,401.929321 
	C197.952667,403.429932 198.077454,406.550110 198.069534,409.210114 
	C198.046844,416.845947 198.101746,424.482025 198.155350,432.589630 
	C198.623489,433.756042 198.489380,434.370880 197.575165,434.959015 
	C197.126602,415.903870 197.051117,396.815094 196.901642,377.726898 
	C196.879700,374.924652 198.068802,373.938660 200.798920,373.959137 
	C211.594864,374.040161 222.391815,373.989624 233.188385,373.989166 
	C236.435379,373.989044 238.984711,375.836151 241.875977,377.536652 
	C242.405655,378.428436 243.023972,378.487183 243.856720,378.789764 
	C244.685593,379.087646 245.256973,379.228424 245.930908,379.652283 
z"/>
<path fill="#DE9C12" opacity="1.000000" stroke="none" 
	d="
M90.567116,398.443726 
	C91.793320,400.161957 93.043266,400.943420 94.657234,400.919495 
	C98.592690,400.861206 101.935272,401.536926 104.963219,404.734680 
	C107.226524,407.124939 110.600586,404.603882 113.856308,404.250244 
	C123.075363,410.454285 123.546402,418.938782 120.243027,428.613922 
	C114.665131,426.632660 109.232582,425.392609 103.437897,426.772339 
	C102.660744,426.957397 101.863983,426.470001 100.893402,425.774811 
	C100.490318,425.316132 100.362808,425.106354 100.138855,424.544037 
	C99.953590,423.143311 100.377274,422.283508 100.953300,421.437897 
	C103.875671,417.147705 102.921097,415.089417 97.700905,414.495880 
	C95.728119,414.271576 93.734207,414.363800 91.749443,414.372894 
	C84.611412,414.405670 84.104362,414.965729 84.778786,422.452484 
	C84.954285,423.556244 85.158623,424.285828 85.285797,425.436768 
	C82.696861,430.523010 79.051949,431.232117 74.441246,428.003967 
	C70.780830,425.441193 68.829369,421.770233 67.295212,417.312012 
	C67.021866,410.183014 66.958038,403.374939 67.043320,396.568756 
	C67.066498,394.719299 66.243454,392.192871 68.861191,391.470673 
	C71.136467,390.842987 72.320213,392.979126 73.735855,394.319122 
	C75.495468,395.984680 75.622589,399.168213 78.541756,399.687531 
	C79.447121,399.848602 80.463181,399.387390 81.759621,399.061035 
	C84.572830,396.380280 87.308060,396.285736 90.567116,398.443726 
z"/>
<path fill="#E14E0F" opacity="1.000000" stroke="none" 
	d="
M241.011139,179.590652 
	C238.698761,182.131882 235.989380,183.971039 234.181396,186.463943 
	C230.175949,191.986771 223.190659,192.947067 218.462646,197.333878 
	C217.051544,198.643112 213.884735,198.791550 212.805008,197.665131 
	C208.834549,193.522964 201.701157,193.723633 199.389328,187.189148 
	C198.408798,184.417664 197.356873,181.204529 194.314850,179.133698 
	C193.857758,179.234619 193.719482,179.458191 193.382370,179.341278 
	C192.809067,177.567245 192.434631,176.133698 192.119690,174.324478 
	C192.912628,170.892670 192.242920,167.777298 192.805634,164.353699 
	C196.950455,166.026779 202.234131,166.034882 203.706253,171.638138 
	C203.997772,172.747681 205.566299,172.788864 206.789825,172.329086 
	C212.830612,170.059052 218.830154,170.396133 224.696487,172.883087 
	C228.141510,174.343567 230.999512,171.718887 234.358826,171.867432 
	C242.011612,172.205780 242.024475,171.914734 241.011139,179.590652 
z"/>
<path fill="#DE9C12" opacity="1.000000" stroke="none" 
	d="
M350.452026,388.513702 
	C349.605621,388.601471 349.092834,388.684204 348.200378,388.857910 
	C346.422699,391.761932 347.957092,394.647583 347.872986,397.696594 
	C348.557892,397.922455 348.979156,397.938354 349.705994,398.035645 
	C357.064636,400.006226 364.164429,398.960571 371.610229,398.304321 
	C373.718964,398.656921 375.119415,399.455383 374.831970,402.005432 
	C373.990540,406.092499 370.824127,406.425323 368.162384,406.124756 
	C361.992523,405.428040 355.900940,406.380493 349.774719,406.341583 
	C346.000183,406.317627 342.662170,404.717804 339.223297,403.611298 
	C336.397095,402.701965 335.666107,399.752167 335.248749,397.127472 
	C334.906128,394.972626 334.580902,392.884674 333.295197,390.576782 
	C332.046783,385.981445 332.765594,381.707764 332.463959,377.491058 
	C332.250946,374.513214 334.024261,374.373718 336.564514,374.301941 
	C337.156403,374.110199 337.331879,374.070282 337.770569,374.090454 
	C350.703064,374.919067 363.383301,374.333679 376.499207,374.313751 
	C380.263000,377.666779 379.331940,382.074646 378.293488,385.736389 
	C377.304871,389.222321 373.346832,388.731873 370.125458,388.628601 
	C364.670166,388.453735 359.206726,388.531952 353.263550,388.447693 
	C352.120636,388.518524 351.452118,388.496368 350.452026,388.513702 
z"/>
<path fill="#D79310" opacity="1.000000" stroke="none" 
	d="
M131.228149,419.435242 
	C130.733734,418.579895 130.448349,418.034729 130.145599,416.840607 
	C131.368835,413.813812 133.416229,413.903320 135.667404,414.239990 
	C141.088501,415.050781 142.419876,413.869141 142.646820,408.374084 
	C142.721161,406.574310 142.403320,404.740448 143.128601,402.623474 
	C143.429581,400.981873 143.641205,399.696716 145.420593,399.139404 
	C145.864563,403.965454 146.231583,408.755524 145.890503,413.494659 
	C145.460464,419.470123 148.731430,422.420044 153.810516,424.728821 
	C155.723694,425.999329 157.569443,425.309143 159.652954,425.309418 
	C163.682648,424.013367 166.316330,421.388580 168.994781,418.310364 
	C169.922974,417.134216 170.591293,416.195587 171.233521,415.217377 
	C173.827545,411.266388 174.542389,411.573853 178.707565,414.030487 
	C183.166931,416.660675 185.578339,419.556152 183.256836,425.146820 
	C179.083633,433.828491 172.363342,437.938171 163.272110,438.454498 
	C154.661011,438.943573 146.100677,439.316742 138.624207,433.749146 
	C135.505066,431.426422 132.975342,428.756042 132.004440,424.488495 
	C131.101669,422.746552 131.708939,421.196106 131.228149,419.435242 
z"/>
<path fill="#DC9812" opacity="1.000000" stroke="none" 
	d="
M333.711487,390.361877 
	C335.875488,390.650146 336.619080,392.307068 336.671722,393.906036 
	C336.919189,401.424622 342.720215,403.628601 348.097748,403.583038 
	C356.752838,403.509796 365.543243,404.842224 374.468567,402.518921 
	C375.859192,405.085022 375.170044,407.934387 374.672974,410.480652 
	C373.903625,414.421387 370.184723,412.257965 367.328247,412.720001 
	C363.881134,412.354889 360.856323,412.547668 357.461365,412.585632 
	C355.636261,412.702057 354.183990,412.755249 352.298767,412.749146 
	C348.143463,411.760406 346.529083,413.171387 346.989410,417.006989 
	C347.243774,419.126740 346.539612,421.330933 347.781677,423.648560 
	C348.027863,423.906250 348.029846,423.925354 348.032166,423.934570 
	C352.748077,424.380341 357.340515,425.368622 361.904388,426.639465 
	C364.287964,427.303162 366.608917,427.893250 366.700348,430.757507 
	C366.793152,433.665375 364.494965,434.734039 362.093658,435.027008 
	C356.347351,435.727966 350.575897,436.334473 344.769653,435.932007 
	C340.814209,435.657806 338.090668,433.286957 335.789246,430.333679 
	C334.778595,429.036774 334.067657,427.516663 332.719360,425.909912 
	C332.925507,413.897461 331.485382,402.264404 333.711487,390.361877 
z"/>
<path fill="#DE9C12" opacity="1.000000" stroke="none" 
	d="
M183.294296,425.295471 
	C185.016769,418.518311 177.594818,417.999573 175.012375,413.764771 
	C173.300888,415.222412 172.588699,417.967133 169.496094,417.970612 
	C168.536606,415.787384 169.380890,413.773590 170.091888,411.336761 
	C170.912964,400.594910 170.274551,390.231903 170.523651,379.879333 
	C170.565948,378.121094 169.964310,376.242493 171.597412,374.372437 
	C185.549957,373.481415 185.590027,373.480927 185.753082,386.647766 
	C185.868179,395.943054 185.829773,405.240173 185.913879,414.535980 
	C185.947540,418.256042 185.323166,421.794891 183.294296,425.295471 
z"/>
<path fill="#D79310" opacity="1.000000" stroke="none" 
	d="
M100.749557,424.752258 
	C105.972923,424.692261 110.852509,421.936646 115.920654,424.751434 
	C117.535904,425.648499 119.183342,426.310516 119.895874,428.559692 
	C115.259254,435.623749 108.928055,438.327118 100.644562,437.658936 
	C90.567749,436.846130 80.437172,437.200012 70.327988,437.615082 
	C68.360954,437.695831 65.624290,438.494965 66.122910,434.365570 
	C67.821251,428.679626 66.589027,423.261108 67.019203,417.458221 
	C69.793884,417.468475 70.297401,420.067780 71.628029,421.891174 
	C75.722290,427.501648 79.803337,428.773895 83.891792,425.359863 
	C87.207870,422.106171 91.109825,424.106659 95.033180,423.508728 
	C96.703331,423.475311 97.938126,423.732941 99.525223,424.052612 
	C100.077621,424.260986 100.280167,424.387268 100.749557,424.752258 
z"/>
<path fill="#DD4B0F" opacity="1.000000" stroke="none" 
	d="
M323.921204,152.652924 
	C318.784729,152.913635 314.980865,151.009277 313.228302,145.745071 
	C312.557770,143.731003 311.187042,141.491074 308.742371,141.617996 
	C306.386993,141.740311 306.757141,144.390671 306.210815,145.986694 
	C303.821808,152.965973 302.661652,160.042130 303.644653,167.529694 
	C304.058258,170.680099 302.814117,174.048141 302.099060,177.633240 
	C301.907593,175.024902 301.303192,172.296127 300.624969,169.402878 
	C298.389313,159.866333 298.093231,150.401932 301.347382,140.515686 
	C304.557617,130.762772 310.258148,124.042450 319.863129,117.504700 
	C316.617004,130.548279 317.582642,141.850769 323.921204,152.652924 
z"/>
<path fill="#D79310" opacity="1.000000" stroke="none" 
	d="
M332.982056,426.269379 
	C335.035309,426.047211 336.050812,427.118958 336.951599,428.345215 
	C340.456970,433.117157 345.317993,434.546661 350.945038,433.933105 
	C355.036865,433.486908 359.118134,432.932526 363.191986,432.342712 
	C363.962158,432.231232 364.854034,431.883423 365.007202,430.910675 
	C365.175934,429.839355 364.250610,429.209076 363.547089,429.307159 
	C357.747681,430.115570 354.342407,423.861969 348.363495,424.151245 
	C356.826080,423.956543 365.620422,424.100372 374.407959,423.917572 
	C377.919067,423.844574 379.343262,425.125732 378.976562,428.539642 
	C378.958954,428.703674 378.973419,428.871155 378.972046,429.037018 
	C378.888458,439.129883 379.912201,437.611420 370.654602,437.645355 
	C358.069366,437.691437 345.483032,437.453735 332.602356,437.065369 
	C332.795776,433.372589 332.251495,429.921143 332.982056,426.269379 
z"/>
<path fill="#E5A215" opacity="1.000000" stroke="none" 
	d="
M408.492310,383.781616 
	C405.463959,387.859344 402.683624,391.782257 404.848450,397.166779 
	C405.763580,399.442963 406.476135,401.814148 405.338074,404.630768 
	C398.763458,396.452362 392.379150,387.926605 385.930359,379.449890 
	C384.807739,377.974304 383.317627,376.460968 384.304321,374.651031 
	C385.083496,373.221771 387.016602,374.094788 388.423737,374.026459 
	C390.902405,373.906067 393.433197,374.279938 395.866943,373.927490 
	C401.825867,373.064453 405.325806,375.630066 407.011322,381.554626 
	C407.163239,382.049500 407.283295,382.177673 407.657593,382.374573 
	C408.085876,382.819977 408.259857,383.196655 408.492310,383.781616 
z"/>
<path fill="#E5A215" opacity="1.000000" stroke="none" 
	d="
M145.881317,398.711609 
	C145.512909,400.225067 145.213867,401.252136 144.889954,402.612732 
	C141.899887,404.997650 140.372940,402.941864 138.829407,400.854706 
	C134.984573,395.655609 131.408020,390.333557 130.418900,383.390259 
	C130.005798,382.936066 129.840912,382.754303 129.433151,382.295898 
	C128.730682,374.011078 128.730682,374.011078 136.519516,373.987610 
	C146.021896,373.958984 146.028992,373.958984 146.016434,383.298431 
	C146.009735,388.274048 145.973541,393.249603 145.881317,398.711609 
z"/>
<path fill="#D79310" opacity="1.000000" stroke="none" 
	d="
M262.901367,404.398651 
	C264.628967,404.579651 265.222687,405.806274 265.497650,407.112762 
	C266.481812,411.789307 269.409271,414.239807 274.386719,414.945343 
	C275.680756,415.305725 275.440796,416.098785 275.498291,417.116089 
	C275.495850,417.709747 275.493042,417.947418 275.455170,418.540283 
	C274.913269,420.301453 274.918640,421.707520 275.455078,423.477661 
	C275.535156,426.317413 275.441345,428.794312 275.703339,431.608398 
	C276.928772,436.553345 274.978882,438.274353 270.451233,437.799988 
	C268.517822,437.597412 266.540314,437.691223 264.590942,437.797943 
	C262.281464,437.924347 261.814270,436.661438 262.108643,434.328796 
	C262.950958,424.198853 262.194000,414.467102 262.901367,404.398651 
z"/>
<path fill="#D79310" opacity="1.000000" stroke="none" 
	d="
M227.516479,425.260590 
	C228.985687,424.503021 230.420929,424.326477 232.031998,425.512268 
	C238.410522,430.207275 238.459351,430.140930 243.821442,424.156952 
	C246.686707,426.913940 248.951920,430.078308 250.338425,433.778534 
	C251.312958,436.379364 250.658600,437.429321 247.565781,437.929932 
	C238.898544,439.332794 233.042480,436.289093 229.601181,428.241241 
	C229.199509,427.301849 229.028397,425.926941 227.516479,425.260590 
z"/>
<path fill="#D79310" opacity="1.000000" stroke="none" 
	d="
M428.770660,437.205688 
	C430.516083,435.159241 431.777893,432.718048 434.386871,431.268188 
	C436.953583,429.841888 436.106689,427.014252 435.034393,424.640137 
	C433.714386,421.717621 431.342529,419.172821 431.879333,415.316986 
	C434.045868,415.665466 434.216705,417.604095 434.952789,419.537537 
	C435.380066,420.357574 435.914490,420.486908 436.658630,420.788940 
	C436.911194,421.140625 436.963013,421.302124 437.073883,421.711121 
	C437.242981,422.123779 437.352997,422.289001 437.684998,422.652557 
	C440.305511,426.119904 442.670654,429.414154 445.119812,432.644684 
	C446.034851,433.851715 446.992676,435.238434 446.493439,436.589996 
	C445.990448,437.951813 444.244141,437.769226 442.940033,437.752533 
	C438.315979,437.693298 433.692932,437.559052 428.770660,437.205688 
z"/>
<path fill="#D79310" opacity="1.000000" stroke="none" 
	d="
M387.646667,429.168488 
	C393.052155,434.103302 398.920624,433.673523 405.389648,431.178864 
	C404.820282,432.639679 402.576477,433.237579 402.587311,435.627319 
	C402.592743,436.832672 401.371765,437.657684 400.132690,437.670746 
	C395.357147,437.721191 390.560760,437.906586 385.811432,437.537109 
	C382.991455,437.317719 383.859070,434.918854 384.574554,433.339355 
	C385.231506,431.888977 386.404388,430.672333 387.646667,429.168488 
z"/>
<path fill="#D0380F" opacity="1.000000" stroke="none" 
	d="
M177.886017,181.441132 
	C174.588989,175.638474 176.580826,168.905685 176.067917,162.403366 
	C175.847626,159.610657 176.287674,156.648392 172.662277,155.092957 
	C174.504074,153.191925 175.856781,148.756500 178.953659,150.333511 
	C181.078690,151.415649 178.159515,154.995483 178.112686,157.500519 
	C177.966415,165.327942 177.994537,173.158630 177.886017,181.441132 
z"/>
<path fill="#D79310" opacity="1.000000" stroke="none" 
	d="
M197.350861,435.333710 
	C197.490860,434.521759 197.755737,434.051056 198.102570,433.320801 
	C202.579468,432.623230 206.978058,432.065216 211.549194,433.700806 
	C211.885773,435.218201 212.267090,436.577911 210.832474,437.440979 
	C208.664444,438.745331 199.778564,437.568451 197.350861,435.333710 
z"/>
<path fill="#E5A215" opacity="1.000000" stroke="none" 
	d="
M263.163330,403.575134 
	C262.559906,413.750000 263.733398,423.496216 262.362488,433.548615 
	C262.119690,414.921509 262.093597,395.933105 261.940186,376.945770 
	C261.919800,374.419037 262.904846,373.840881 265.172791,373.957245 
	C268.991028,374.153198 272.820465,374.130554 276.886841,374.565369 
	C273.979767,374.961243 270.826508,375.109985 267.683533,374.989960 
	C264.260284,374.859192 262.931671,376.367584 262.990997,379.736755 
	C263.128143,387.524231 263.083710,395.314850 263.163330,403.575134 
z"/>
<path fill="#E5A215" opacity="1.000000" stroke="none" 
	d="
M333.274414,425.573792 
	C333.114380,429.395294 332.881927,432.748901 332.478516,436.447754 
	C331.463226,416.652069 332.134033,396.502655 331.940674,376.358398 
	C331.905457,372.689178 334.471161,374.360870 336.536530,374.083710 
	C332.552673,375.155121 332.972656,378.596222 333.020966,381.911377 
	C333.056854,384.373657 333.080597,386.822266 333.934631,389.603241 
	C332.329468,401.675537 333.203735,413.401031 333.274414,425.573792 
z"/>
<path fill="#E5A215" opacity="1.000000" stroke="none" 
	d="
M371.503479,398.086823 
	C367.489471,401.445953 362.339996,399.603912 357.498077,399.948639 
	C355.085510,400.120422 352.193909,401.897125 350.138489,398.428253 
	C357.021729,398.084717 364.031921,398.052399 371.503479,398.086823 
z"/>
<path fill="#DE9C12" opacity="1.000000" stroke="none" 
	d="
M116.312180,402.691498 
	C113.298889,397.149414 119.154068,393.578766 119.760101,388.335266 
	C122.734192,393.753021 119.238312,398.036285 116.312180,402.691498 
z"/>
<path fill="#E5A215" opacity="1.000000" stroke="none" 
	d="
M376.484680,374.085693 
	C373.099915,375.820709 369.056000,374.988800 365.124512,374.953827 
	C356.338562,374.875702 347.533844,375.605774 338.399414,374.333313 
	C350.698730,374.100922 363.363708,374.051361 376.484680,374.085693 
z"/>
<path fill="#E5A215" opacity="1.000000" stroke="none" 
	d="
M304.882141,412.428528 
	C304.562744,412.646637 304.320953,412.417694 303.918762,411.992950 
	C303.922821,399.372803 304.087311,386.948456 304.648224,374.356049 
	C305.016388,386.785828 304.988068,399.383667 304.882141,412.428528 
z"/>
<path fill="#E5A215" opacity="1.000000" stroke="none" 
	d="
M171.554596,374.069275 
	C170.206970,378.610535 171.256561,383.302795 171.048874,387.902039 
	C170.713242,395.335144 171.598724,402.798431 170.351288,410.580017 
	C170.107513,399.404755 170.037140,387.866669 170.002243,376.328461 
	C169.999557,375.438080 169.666306,374.262268 171.554596,374.069275 
z"/>
<path fill="#DC9812" opacity="1.000000" stroke="none" 
	d="
M129.110855,382.479553 
	C129.190292,382.019257 129.599197,382.049500 129.803238,382.069397 
	C132.320892,384.324921 131.591248,387.398682 131.946426,390.062836 
	C132.894775,397.176300 132.456711,404.360382 132.227966,411.518738 
	C132.179031,413.050323 131.725906,414.465881 130.530640,416.122986 
	C130.282654,416.548035 130.132263,416.709961 130.056610,416.790497 
	C128.167435,414.514771 129.161652,411.788330 129.117386,409.255676 
	C128.964096,400.485901 129.041687,391.712128 129.110855,382.479553 
z"/>
<path fill="#C42D0E" opacity="1.000000" stroke="none" 
	d="
M170.187927,314.303223 
	C175.176300,314.555054 178.781784,316.945831 179.959442,322.632385 
	C175.841141,321.268372 174.082642,316.795929 170.187927,314.303223 
z"/>
<path fill="#D79310" opacity="1.000000" stroke="none" 
	d="
M347.967377,423.453552 
	C344.292755,420.952911 345.961304,417.026031 346.583588,413.589905 
	C346.962189,411.499420 349.413940,411.961914 351.536560,412.538666 
	C348.164764,412.419495 347.193878,414.430878 347.578644,417.703003 
	C347.784973,419.457550 347.803589,421.234192 347.967377,423.453552 
z"/>
<path fill="#C42D0E" opacity="1.000000" stroke="none" 
	d="
M181.253448,324.253967 
	C185.860489,325.046356 189.887543,327.322968 192.906250,331.675598 
	C188.388382,330.680267 185.096634,327.317108 181.253448,324.253967 
z"/>
<path fill="#C42D0E" opacity="1.000000" stroke="none" 
	d="
M282.809570,154.452209 
	C282.408630,154.913681 282.057648,154.925140 281.446686,154.929260 
	C281.497345,150.491104 279.913544,145.904160 282.552612,141.405701 
	C282.835876,145.446396 282.847717,149.724289 282.809570,154.452209 
z"/>
<path fill="#E5A215" opacity="1.000000" stroke="none" 
	d="
M275.587463,417.599609 
	C275.068634,417.308594 274.971039,416.549988 274.804016,415.414948 
	C275.109863,410.293762 275.232361,405.562836 274.334991,400.845459 
	C274.167023,399.962555 274.170929,398.826080 275.460297,398.608734 
	C275.558472,398.592194 275.846222,399.699890 276.084412,400.557007 
	C276.084869,406.263306 276.046783,411.697662 275.587463,417.599609 
z"/>
<path fill="#E5A215" opacity="1.000000" stroke="none" 
	d="
M444.969971,377.542969 
	C443.746429,375.565460 441.807678,374.882477 439.278961,374.981293 
	C435.867554,375.114594 432.446960,375.013214 428.570740,375.009735 
	C433.379669,372.759857 438.860382,374.306061 444.236450,374.233521 
	C445.704681,374.213684 445.020538,376.057251 444.969971,377.542969 
z"/>
<path fill="#DD4B0F" opacity="1.000000" stroke="none" 
	d="
M193.180679,163.640564 
	C192.792908,167.076950 193.436691,170.200455 192.352219,173.592865 
	C191.500534,168.388016 192.332901,162.931793 193.643311,157.257111 
	C193.985794,159.135529 194.143738,161.257599 193.180679,163.640564 
z"/>
<path fill="#DC9812" opacity="1.000000" stroke="none" 
	d="
M275.079346,418.335510 
	C275.166229,418.067200 275.498505,418.055084 275.664581,418.057495 
	C275.878906,422.385437 275.927155,426.711029 275.917175,431.491852 
	C274.404572,429.347046 275.241302,426.481903 274.887817,423.311554 
	C274.314392,421.913818 274.539764,420.874756 274.699036,419.504120 
	C274.897552,418.967743 274.944977,418.785797 275.079346,418.335510 
z"/>
<path fill="#DC9812" opacity="1.000000" stroke="none" 
	d="
M299.797424,406.698792 
	C298.784851,407.142395 297.764374,408.722198 296.836609,407.894470 
	C295.569427,406.763977 297.038269,405.197144 296.981140,403.462036 
	C298.604004,403.645966 298.926880,405.212311 299.797424,406.698792 
z"/>
<path fill="#DC9812" opacity="1.000000" stroke="none" 
	d="
M348.019928,397.476196 
	C346.828156,395.133362 345.641205,392.347748 347.535339,389.111877 
	C347.848206,391.647858 347.875732,394.346863 348.019928,397.476196 
z"/>
<path fill="#E4540E" opacity="1.000000" stroke="none" 
	d="
M220.630432,117.016327 
	C220.937164,118.704628 220.936432,120.483467 218.255310,120.914764 
	C217.989532,119.232903 218.398148,117.701141 220.630432,117.016327 
z"/>
<path fill="#D79310" opacity="1.000000" stroke="none" 
	d="
M357.524261,412.743713 
	C360.093201,411.599457 363.141022,411.849121 366.548615,412.490234 
	C363.920105,412.702393 360.940033,412.770508 357.524261,412.743713 
z"/>
<path fill="#D0380F" opacity="1.000000" stroke="none" 
	d="
M141.704163,214.304596 
	C141.870193,217.070938 142.375702,220.168732 141.386871,223.560471 
	C140.961182,220.805573 140.761002,217.696869 141.704163,214.304596 
z"/>
<path fill="#DC9812" opacity="1.000000" stroke="none" 
	d="
M415.647522,393.027954 
	C412.501282,395.377380 413.820068,391.738342 413.057251,390.354248 
	C413.801178,391.027985 414.558044,392.035248 415.647522,393.027954 
z"/>
<path fill="#D63F10" opacity="1.000000" stroke="none" 
	d="
M355.802856,207.663177 
	C353.913635,207.152405 354.012451,205.467590 353.954559,203.490479 
	C354.922821,204.377609 355.724792,205.700150 355.802856,207.663177 
z"/>
<path fill="#E4540E" opacity="1.000000" stroke="none" 
	d="
M224.614471,113.011398 
	C224.899216,114.506905 224.364914,115.667358 222.304901,115.937592 
	C221.993225,114.419312 222.614563,113.325951 224.614471,113.011398 
z"/>
<path fill="#E5A215" opacity="1.000000" stroke="none" 
	d="
M159.541443,425.094055 
	C158.216949,426.190002 156.432480,426.262329 154.313141,425.199829 
	C155.719574,425.016815 157.420761,425.021851 159.541443,425.094055 
z"/>
<path fill="#D63F10" opacity="1.000000" stroke="none" 
	d="
M181.826660,192.611816 
	C180.721008,191.736053 180.156570,190.287186 180.058136,188.299591 
	C181.747620,188.934784 180.923187,190.952911 181.826660,192.611816 
z"/>
<path fill="#DE9C12" opacity="1.000000" stroke="none" 
	d="
M131.005722,419.508392 
	C132.042938,420.381653 132.007523,421.875244 131.951965,423.751526 
	C130.234421,423.027771 131.286880,421.310028 131.005722,419.508392 
z"/>
<path fill="#DC9812" opacity="1.000000" stroke="none" 
	d="
M412.989624,389.621216 
	C412.419342,389.446014 411.827881,388.948303 411.146881,388.160217 
	C411.913635,388.052826 412.779541,388.222992 412.989624,389.621216 
z"/>
<path fill="#E4540E" opacity="1.000000" stroke="none" 
	d="
M193.116043,179.369659 
	C193.183517,179.000793 193.589859,179.004684 193.792938,179.007874 
	C193.990265,180.090530 193.984512,181.169983 193.965973,182.653473 
	C192.498215,182.265549 193.185287,180.889771 193.116043,179.369659 
z"/>
<path fill="#E4540E" opacity="1.000000" stroke="none" 
	d="
M284.875671,91.636993 
	C284.560547,91.175529 284.302673,90.380013 284.038574,89.265671 
	C285.066528,89.451653 284.849670,90.434647 284.875671,91.636993 
z"/>
<path fill="#DC9812" opacity="1.000000" stroke="none" 
	d="
M350.448792,388.622986 
	C350.861694,388.420929 351.605042,388.323120 352.564392,388.308441 
	C352.113342,388.503448 351.446259,388.615356 350.448792,388.622986 
z"/>
<path fill="#CC3310" opacity="1.000000" stroke="none" 
	d="
M361.703278,238.592316 
	C361.126892,238.184525 360.995392,237.399796 361.480682,236.350891 
	C361.672729,236.840714 361.741608,237.545044 361.703278,238.592316 
z"/>
<path fill="#DE9C12" opacity="1.000000" stroke="none" 
	d="
M243.983383,378.656097 
	C243.565674,378.723419 243.017136,378.500000 242.254944,378.067566 
	C242.645050,378.027466 243.248810,378.196381 243.983383,378.656097 
z"/>
<path fill="#DC9812" opacity="1.000000" stroke="none" 
	d="
M296.034607,401.705933 
	C295.773651,401.570007 295.479614,401.179657 295.119934,400.560394 
	C295.370056,400.704803 295.685760,401.078125 296.034607,401.705933 
z"/>
<path fill="#DE9C12" opacity="1.000000" stroke="none" 
	d="
M436.828857,420.669739 
	C436.378662,420.736847 435.897980,420.494568 435.224640,420.059052 
	C435.620758,420.030640 436.209534,420.195496 436.828857,420.669739 
z"/>
<path fill="#CC3310" opacity="1.000000" stroke="none" 
	d="
M159.079163,301.255096 
	C159.282547,301.245819 159.590012,301.441101 159.910828,301.808289 
	C159.614807,301.895447 159.367844,301.721954 159.079163,301.255096 
z"/>
<path fill="#DC9812" opacity="1.000000" stroke="none" 
	d="
M293.045593,397.634583 
	C292.771515,397.444458 292.484100,396.935608 292.140747,396.137329 
	C292.765289,396.101868 293.027832,396.625549 293.045593,397.634583 
z"/>
<path fill="#DC9812" opacity="1.000000" stroke="none" 
	d="
M286.983948,414.365234 
	C287.250671,414.542938 287.539978,415.016724 287.889221,415.765869 
	C287.634949,415.581268 287.320740,415.121307 286.983948,414.365234 
z"/>
<path fill="#DC9812" opacity="1.000000" stroke="none" 
	d="
M288.014801,416.298553 
	C288.214844,416.229706 288.452362,416.445404 288.811462,416.880829 
	C288.665405,416.899536 288.371826,416.727020 288.014801,416.298553 
z"/>
<path fill="#DC9812" opacity="1.000000" stroke="none" 
	d="
M289.013123,417.269226 
	C289.186371,417.217438 289.425537,417.431427 289.783997,417.863892 
	C289.653870,417.871613 289.379089,417.689178 289.013123,417.269226 
z"/>
<path fill="#DD4B0F" opacity="1.000000" stroke="none" 
	d="
M324.508728,153.706848 
	C324.381592,153.736893 324.249756,153.590637 324.064514,153.297318 
	C324.210052,153.223679 324.374329,153.350449 324.508728,153.706848 
z"/>
<path fill="#DE9C12" opacity="1.000000" stroke="none" 
	d="
M437.881348,422.632812 
	C437.689423,422.694611 437.503693,422.506775 437.241394,422.122986 
	C437.445953,421.996490 437.686859,422.148529 437.881348,422.632812 
z"/>
<path fill="#E4540E" opacity="1.000000" stroke="none" 
	d="
M212.729965,125.274323 
	C212.784332,125.479050 212.594421,125.651634 212.217072,125.898590 
	C212.077652,125.674927 212.229660,125.431335 212.729965,125.274323 
z"/>
<path fill="#E4540E" opacity="1.000000" stroke="none" 
	d="
M214.715530,123.023804 
	C214.825012,123.195618 214.676682,123.426178 214.352081,123.783508 
	C214.063858,123.574272 214.157822,123.298363 214.715530,123.023804 
z"/>
<path fill="#DE9C12" opacity="1.000000" stroke="none" 
	d="
M407.719543,382.271515 
	C407.613037,382.489166 407.365631,382.398499 407.106445,382.046326 
	C407.204529,381.980804 407.365845,382.040253 407.719543,382.271515 
z"/>
<path fill="#D63F10" opacity="1.000000" stroke="none" 
	d="
M179.961166,187.743378 
	C179.784973,187.796677 179.544266,187.580765 179.193695,187.133850 
	C179.324127,187.127472 179.595047,187.317917 179.961166,187.743378 
z"/>
<path fill="#D63F10" opacity="1.000000" stroke="none" 
	d="
M144.722229,205.990524 
	C144.830276,206.163971 144.672348,206.411331 144.333435,206.801086 
	C144.286514,206.671402 144.387772,206.378372 144.722229,205.990524 
z"/>
<path fill="#C42D0E" opacity="1.000000" stroke="none" 
	d="
M180.087097,323.251953 
	C180.263763,323.177094 180.502533,323.364319 180.868958,323.752563 
	C180.658020,323.930695 180.375549,323.784180 180.087097,323.251953 
z"/>
<path fill="#DC9812" opacity="1.000000" stroke="none" 
	d="
M293.861328,398.671265 
	C293.689545,398.723877 293.477112,398.526123 293.164795,398.118500 
	C293.347809,398.022217 293.599731,398.192993 293.861328,398.671265 
z"/>
<path fill="#DC9812" opacity="1.000000" stroke="none" 
	d="
M294.849365,399.645233 
	C294.647400,399.728363 294.460907,399.561005 294.202637,399.200317 
	C294.422180,399.023773 294.666840,399.153046 294.849365,399.645233 
z"/>
<path fill="#DC9812" opacity="1.000000" stroke="none" 
	d="
M296.877502,402.686127 
	C296.678741,402.745605 296.471710,402.537811 296.166077,402.119080 
	C296.382568,401.987305 296.649841,402.157562 296.877502,402.686127 
z"/>
<path fill="#DE9C12" opacity="1.000000" stroke="none" 
	d="
M115.244667,403.839966 
	C115.168404,403.625061 115.350975,403.438629 115.724670,403.175476 
	C115.938171,403.429474 115.800735,403.686035 115.244667,403.839966 
z"/>
<path fill="#DC9812" opacity="1.000000" stroke="none" 
	d="
M302.002991,409.737610 
	C301.826721,409.773560 301.594147,409.538818 301.231201,409.090332 
	C301.366821,409.089142 301.648804,409.285919 302.002991,409.737610 
z"/>
<path fill="#DC9812" opacity="1.000000" stroke="none" 
	d="
M302.969299,410.721436 
	C302.730225,410.780884 302.519470,410.542542 302.193359,410.087830 
	C302.362915,410.074677 302.669434,410.258728 302.969299,410.721436 
z"/>
<path fill="#010000" opacity="1.000000" stroke="none" 
	d="
M314.645660,225.872589 
	C317.739532,230.386627 321.860931,233.473969 325.468292,237.055832 
	C330.226349,241.780258 334.456360,246.771301 333.007324,254.614822 
	C332.177216,256.277344 331.395447,257.556335 330.321655,258.995178 
	C326.591705,265.869202 321.151978,270.614563 314.644958,274.792847 
	C314.313934,275.185547 314.226593,275.335327 314.054138,275.730835 
	C313.581909,276.410675 313.036835,276.487061 312.353394,276.834869 
	C312.190887,277.051758 312.026978,277.052795 312.017914,277.134216 
	C311.844635,277.305115 311.680389,277.394592 311.375061,277.726562 
	C311.233948,277.969025 311.038177,278.017151 311.015533,278.115356 
	C310.675323,278.555145 310.483215,278.956696 310.205505,279.687988 
	C309.817200,280.015106 309.639832,280.072479 309.206055,280.241333 
	C308.777802,280.421600 308.605988,280.490479 308.280090,280.790344 
	C308.126038,281.021332 308.022827,281.029205 308.027100,281.080811 
	C307.334290,281.834564 306.877289,282.704010 306.170044,283.755615 
	C305.814362,284.019897 305.648743,284.059998 305.250000,284.204834 
	C304.115997,285.328705 303.572144,286.630768 302.240662,287.740112 
	C301.995209,287.976990 301.994629,287.991516 301.986389,287.993286 
	C295.922333,291.719055 291.829865,297.562683 286.686554,302.276733 
	C278.786102,309.517761 271.391785,317.308380 263.652100,324.729523 
	C261.913422,326.396667 259.635315,327.501251 257.288818,329.018158 
	C255.596313,329.800293 254.205521,330.231262 252.373749,329.224670 
	C251.925308,328.630524 251.740417,328.367279 251.252029,328.049011 
	C249.856461,328.001465 248.748505,327.909393 248.114929,326.304810 
	C247.022690,323.985046 245.339569,322.634338 243.276276,321.222107 
	C236.640411,313.693359 229.574493,307.017578 222.341064,300.047424 
	C209.361771,287.524658 197.747787,274.105804 184.255524,262.113708 
	C183.272781,261.139923 182.604065,260.297211 181.744232,259.189880 
	C181.509674,258.754120 181.466248,258.583038 181.195084,258.276947 
	C180.967331,258.141937 181.000793,258.051086 180.955307,258.034546 
	C180.770996,257.842651 180.632172,257.667267 180.255249,257.255432 
	C176.565308,252.057968 177.001770,246.140030 181.273102,241.880203 
	C186.257629,236.909134 191.505402,232.196854 196.036362,226.386124 
	C196.089447,226.037796 196.567947,225.946136 196.796936,225.863068 
	C197.202911,225.669693 197.379883,225.559402 197.775223,225.225189 
	C197.993607,225.001266 198.002029,225.001221 198.001678,224.996796 
	C198.225632,224.773453 198.448456,224.553024 198.838409,224.167297 
	C199.007065,224.003525 199.000000,223.999390 199.001785,224.002869 
	C199.152771,223.855835 199.301971,223.705292 199.622162,223.286743 
	C200.787842,222.236603 201.782532,221.454498 202.899292,220.370514 
	C215.071518,208.277695 227.128738,196.493958 239.161621,184.685425 
	C240.453796,183.417313 241.604370,182.004913 242.958054,180.350845 
	C243.563705,179.690430 244.031937,179.338608 244.732544,178.801239 
	C245.307205,178.323135 245.522934,177.956161 245.842651,177.279663 
	C246.652374,176.620300 247.231644,176.196091 247.957733,175.541351 
	C248.469147,174.564850 249.356491,174.178970 249.674225,173.019165 
	C250.043076,172.683701 250.239700,172.611160 250.717957,172.678253 
	C252.413956,172.411011 253.828339,172.004135 255.616669,171.590668 
	C258.062073,170.201035 259.725433,171.224915 261.649445,172.788849 
	C261.951355,173.085403 261.971039,173.040314 261.948517,173.050476 
	C263.947296,177.016113 268.271820,178.849091 270.886963,182.710144 
	C271.774536,183.595306 272.585083,184.026428 273.576111,184.782593 
	C273.842133,184.995560 273.859222,185.125839 273.922607,185.143097 
	C274.500092,185.478241 274.480377,186.055786 274.865906,186.701447 
	C275.075592,186.864700 275.063171,186.941391 275.101624,186.946869 
	C275.259857,187.134735 275.379669,187.317139 275.772827,187.679657 
	C276.046143,187.859787 276.056885,187.935822 276.094788,187.929688 
	C276.434265,188.466354 277.005188,188.480362 277.689331,188.826355 
	C279.574005,192.350983 282.921753,194.115189 285.590881,196.929474 
	C287.097992,199.893997 290.138824,201.089294 292.049561,203.764435 
	C292.616150,204.313828 292.979797,204.514099 293.684814,204.759918 
	C293.952026,204.940109 293.952728,205.040237 294.002808,205.040466 
	C294.205566,205.198059 294.358276,205.355438 294.739014,205.749893 
	C294.967010,205.986969 294.970581,206.020355 294.987946,206.023636 
	C300.822571,213.207214 307.352295,219.688248 314.645660,225.872589 
z"/>
<path fill="#E14E0F" opacity="1.000000" stroke="none" 
	d="
M250.987854,172.447693 
	C250.999588,172.817886 250.540359,172.969559 250.300323,172.998810 
	C249.877380,173.199692 249.694473,173.371353 249.240997,173.281555 
	C247.273682,172.705185 244.998901,172.998703 244.847565,170.561569 
	C244.759857,169.149445 246.212082,168.368271 247.604248,168.283401 
	C250.244171,168.122482 250.868942,169.905716 250.987854,172.447693 
z"/>
<path fill="#E14E0F" opacity="1.000000" stroke="none" 
	d="
M261.854797,172.773163 
	C260.201355,172.696442 258.451385,172.307480 256.346008,171.751282 
	C258.627045,167.180756 260.080658,170.557281 261.854797,172.773163 
z"/>
<path fill="#DD4B0F" opacity="1.000000" stroke="none" 
	d="
M248.847641,173.300659 
	C249.152130,173.019226 249.333801,173.018372 249.787888,173.022797 
	C249.604080,173.709763 249.147873,174.391479 248.398117,175.192001 
	C248.311310,174.734283 248.518082,174.157761 248.847641,173.300659 
z"/>
<path fill="#DD4B0F" opacity="1.000000" stroke="none" 
	d="
M245.882202,177.198517 
	C245.861725,177.502228 245.650360,177.959946 245.201935,178.516663 
	C245.207031,178.194626 245.449173,177.773575 245.882202,177.198517 
z"/>
<path fill="#CC3310" opacity="1.000000" stroke="none" 
	d="
M247.916931,326.205627 
	C248.968124,326.433624 249.876862,326.898163 250.911469,327.647156 
	C249.245193,328.978516 247.796051,329.274017 247.916931,326.205627 
z"/>
<path fill="#CC3310" opacity="1.000000" stroke="none" 
	d="
M252.141586,329.250641 
	C253.398926,328.986359 254.776505,329.016541 256.563110,329.109131 
	C255.514191,330.710175 254.023468,331.835602 252.141586,329.250641 
z"/>
<path fill="#C42D0E" opacity="1.000000" stroke="none" 
	d="
M314.749298,275.015228 
	C319.382019,269.751953 324.362762,264.468140 329.686584,259.169678 
	C328.427338,267.616699 322.596130,272.091736 314.749298,275.015228 
z"/>
<path fill="#C42D0E" opacity="1.000000" stroke="none" 
	d="
M302.314087,287.900635 
	C302.122162,286.337219 303.312683,285.421143 304.710266,284.373474 
	C304.918640,285.953491 304.395874,287.309448 302.314087,287.900635 
z"/>
<path fill="#C42D0E" opacity="1.000000" stroke="none" 
	d="
M306.235779,283.815796 
	C306.051910,282.872070 306.596832,282.036652 307.750977,281.261444 
	C307.518127,281.972198 307.004822,282.812012 306.235779,283.815796 
z"/>
<path fill="#C42D0E" opacity="1.000000" stroke="none" 
	d="
M310.177002,279.776672 
	C310.162781,279.448517 310.330994,278.939331 310.746033,278.321869 
	C310.781769,278.674286 310.570618,279.134949 310.177002,279.776672 
z"/>
<path fill="#C42D0E" opacity="1.000000" stroke="none" 
	d="
M312.444489,276.975464 
	C312.601837,276.727661 313.012817,276.403564 313.696411,276.028015 
	C313.545380,276.284058 313.121735,276.591614 312.444489,276.975464 
z"/>
<path fill="#C42D0E" opacity="1.000000" stroke="none" 
	d="
M308.280884,280.932922 
	C308.133179,280.716034 308.269806,280.488464 308.742737,280.345673 
	C308.804993,280.544586 308.633698,280.708496 308.280884,280.932922 
z"/>
<path fill="#C42D0E" opacity="1.000000" stroke="none" 
	d="
M311.380829,277.862885 
	C311.237854,277.675201 311.367096,277.454895 311.815247,277.261902 
	C311.873688,277.418457 311.713318,277.598816 311.380829,277.862885 
z"/>
<path fill="#E14E0F" opacity="1.000000" stroke="none" 
	d="
M190.791046,201.419846 
	C190.017456,201.831253 189.411880,201.862320 189.055603,201.205460 
	C188.970657,201.048874 189.183777,200.531937 189.365723,200.463898 
	C190.122345,200.180893 190.908508,200.027313 190.791046,201.419846 
z"/>
<path fill="#D63F10" opacity="1.000000" stroke="none" 
	d="
M197.817627,225.111984 
	C197.980682,225.357452 197.819580,225.624115 197.268127,225.790619 
	C197.212143,225.573181 197.417374,225.387421 197.817627,225.111984 
z"/>
<path fill="#D63F10" opacity="1.000000" stroke="none" 
	d="
M199.643997,223.168854 
	C199.923935,223.390442 199.818283,223.674149 199.239868,223.938080 
	C199.139297,223.757202 199.303055,223.528091 199.643997,223.168854 
z"/>
<path fill="#D63F10" opacity="1.000000" stroke="none" 
	d="
M198.817429,224.144989 
	C198.938339,224.348389 198.758301,224.619247 198.234131,224.904236 
	C198.178085,224.728622 198.386917,224.493301 198.817429,224.144989 
z"/>
<path fill="#D0380F" opacity="1.000000" stroke="none" 
	d="
M181.039215,258.290588 
	C181.218246,258.199005 181.405258,258.340515 181.540726,258.745850 
	C181.373230,258.792816 181.225891,258.630829 181.039215,258.290588 
z"/>
<path fill="#D0380F" opacity="1.000000" stroke="none" 
	d="
M180.146515,257.202148 
	C180.293823,257.185333 180.570496,257.351624 180.878479,257.767944 
	C180.675095,257.830566 180.463776,257.619659 180.146515,257.202148 
z"/>
<path fill="#C42D0E" opacity="1.000000" stroke="none" 
	d="
M273.701111,184.743179 
	C272.758942,184.917557 272.044464,184.241974 271.266785,183.199890 
	C271.953094,183.444199 272.756561,183.967499 273.701111,184.743179 
z"/>
<path fill="#C42D0E" opacity="1.000000" stroke="none" 
	d="
M275.021118,186.606705 
	C274.734100,186.472946 274.392639,186.081192 274.018585,185.424896 
	C274.312927,185.556458 274.639801,185.952576 275.021118,186.606705 
z"/>
<path fill="#C42D0E" opacity="1.000000" stroke="none" 
	d="
M277.706848,188.818573 
	C277.377106,188.820114 276.885101,188.612427 276.262939,188.164154 
	C276.603363,188.152145 277.073975,188.380753 277.706848,188.818573 
z"/>
<path fill="#C42D0E" opacity="1.000000" stroke="none" 
	d="
M275.941650,187.666321 
	C275.696045,187.861984 275.430298,187.713409 275.194458,187.183197 
	C275.423004,187.058136 275.655365,187.231644 275.941650,187.666321 
z"/>
<path fill="#000000" opacity="1.000000" stroke="none" 
	d="
M230.212250,403.724976 
	C225.358002,403.994476 220.718094,403.878082 216.085480,404.012939 
	C213.754761,404.080780 212.920441,403.319183 212.890945,400.947083 
	C212.854263,397.998047 212.838257,395.038757 212.118256,392.094238 
	C211.415375,389.219696 212.871475,387.861450 215.905640,387.852020 
	C220.709747,387.837128 225.474457,388.038879 230.228226,388.806061 
	C233.990128,389.413147 234.755295,392.492432 236.067596,395.622284 
	C234.779938,398.880280 234.815643,402.860504 230.212250,403.724976 
z"/>
<path fill="#DC450F" opacity="1.000000" stroke="none" 
	d="
M293.781372,204.773376 
	C293.490326,204.767090 293.028625,204.594086 292.446777,204.199997 
	C292.754669,204.188171 293.182678,204.397415 293.781372,204.773376 
z"/>
<path fill="#DC450F" opacity="1.000000" stroke="none" 
	d="
M294.832397,205.812424 
	C294.630524,205.943024 294.369476,205.779037 294.118378,205.267853 
	C294.290131,205.215683 294.505127,205.414734 294.832397,205.812424 
z"/>
<path fill="#000000" opacity="1.000000" stroke="none" 
	d="
M91.120720,398.460815 
	C88.256035,398.873657 85.615738,398.924530 82.533066,398.943237 
	C81.943253,387.482574 81.942383,387.511719 93.471664,387.856842 
	C96.120537,387.936127 98.730644,388.069336 101.225395,389.041107 
	C103.228218,389.821289 104.229324,391.096100 104.064690,393.451233 
	C103.915016,395.592255 103.116714,396.326904 101.062370,397.157745 
	C97.788239,398.481873 94.516075,397.311554 91.120720,398.460815 
z"/>
<path fill="#010000" opacity="1.000000" stroke="none" 
	d="
M82.495209,424.170166 
	C81.661720,412.373627 81.661591,412.328491 93.148773,412.295471 
	C95.931664,412.287445 98.695412,411.782318 101.532906,412.667084 
	C104.367859,413.551086 106.906334,415.382568 106.631676,417.877472 
	C106.382019,420.145325 104.793434,423.186829 101.122070,423.593079 
	C97.515862,425.993347 93.870201,423.956116 90.328445,424.430847 
	C87.899284,424.756439 85.381248,424.578033 82.495209,424.170166 
z"/>
<path fill="#E5A215" opacity="1.000000" stroke="none" 
	d="
M82.290276,424.111176 
	C88.063866,423.935150 94.042259,423.955109 100.483543,423.940796 
	C100.958176,424.087250 100.969925,424.268036 100.999039,424.719879 
	C100.850739,425.009888 100.685059,425.028809 100.270218,425.069641 
	C99.308189,425.596863 98.537926,425.773712 97.336395,425.283173 
	C92.970703,425.052429 88.957397,425.037750 84.483734,425.034485 
	C83.513939,424.799713 83.004517,424.553436 82.290276,424.111176 
z"/>
<path fill="#DE9C12" opacity="1.000000" stroke="none" 
	d="
M130.611786,416.499939 
	C130.189789,405.367188 130.096939,394.186340 130.005676,382.547363 
	C131.938248,382.383728 132.654388,383.668274 133.004028,385.455627 
	C134.319626,392.181244 139.416412,396.692230 142.934769,402.126709 
	C143.162338,402.478210 143.785599,402.573578 144.544937,402.867188 
	C144.902771,405.571594 144.970337,408.196899 144.971939,410.822235 
	C144.975311,416.359863 141.634766,418.784058 136.194565,417.037201 
	C134.435211,416.472229 132.779312,415.896149 130.611786,416.499939 
z"/>
<path fill="#DE9C12" opacity="1.000000" stroke="none" 
	d="
M97.098503,425.327759 
	C97.743469,425.060974 98.502930,425.054810 99.641724,425.070129 
	C99.311249,426.535858 98.480797,427.298096 97.098503,425.327759 
z"/>
<path fill="#DE9C12" opacity="1.000000" stroke="none" 
	d="
M274.685913,419.386353 
	C274.876526,420.143494 274.902924,421.137299 274.897095,422.501190 
	C274.092743,421.858002 273.916870,420.781738 274.685913,419.386353 
z"/>
<path fill="#E5A215" opacity="1.000000" stroke="none" 
	d="
M275.144440,244.149780 
	C275.407043,242.150909 273.885834,241.506577 272.525482,240.441422 
	C269.825378,238.327271 268.530670,235.753220 271.675873,232.833725 
	C272.283447,232.269730 272.839661,231.650772 273.427277,231.064896 
	C279.837921,224.673325 279.508545,223.475449 272.245514,217.882629 
	C268.341705,214.876556 265.190643,210.881226 261.760284,207.274841 
	C256.941010,202.208328 255.552505,202.474197 250.568314,207.628876 
	C243.455658,214.984772 235.718826,221.741898 228.687088,229.169891 
	C222.121063,236.105911 214.611420,242.152557 208.620743,250.045120 
	C203.815750,250.654358 201.669556,247.256531 199.976669,244.291992 
	C198.231003,241.235062 200.068512,238.302521 202.486404,235.906464 
	C205.900375,232.523331 208.958054,228.812454 212.138824,224.735016 
	C212.380814,224.147171 212.475388,223.911362 212.783508,223.359879 
	C212.997025,223.044205 212.989883,222.985962 213.018707,222.991425 
	C213.199997,222.868973 213.352463,222.741043 213.784546,222.508484 
	C214.415588,222.201019 214.685898,221.922012 214.867477,221.255768 
	C225.510345,210.226669 236.108414,199.457001 246.803467,188.784500 
	C251.162933,184.434250 260.211609,184.773178 264.543060,189.092438 
	C273.043732,197.569107 281.517578,206.078323 290.223175,214.341629 
	C295.211456,219.076523 297.723236,227.594620 290.582153,234.240982 
	C287.664093,236.956863 284.746552,239.691513 282.050629,242.621735 
	C280.075684,244.768326 278.024139,245.278458 275.144440,244.149780 
z"/>
<path fill="#DC9812" opacity="1.000000" stroke="none" 
	d="
M258.369904,314.874634 
	C252.833817,317.682709 249.462204,313.913147 246.455063,310.854950 
	C237.714859,301.966431 228.750549,293.327942 219.591568,284.878235 
	C215.822021,281.400604 217.425720,269.832886 222.278915,265.232178 
	C224.383728,263.236847 226.989029,261.705475 228.833099,259.514069 
	C231.611679,256.212097 234.053070,256.010345 236.924820,259.183563 
	C237.316406,259.616272 238.120621,259.675568 239.240692,259.553833 
	C240.708908,259.806366 241.241943,260.736877 241.804398,262.376373 
	C242.818069,267.079315 239.584045,268.844727 237.318039,271.083221 
	C232.721863,275.623566 232.809967,276.868317 237.484467,281.259155 
	C242.189819,285.679016 246.724213,290.286804 251.214920,294.927002 
	C253.917343,297.719391 256.443604,298.053131 259.301666,295.221191 
	C273.305725,281.345001 287.340546,267.499908 301.359528,253.638779 
	C303.763855,251.261490 303.002197,248.895767 301.139862,246.696854 
	C300.415100,245.841141 299.246674,245.374664 298.450562,244.563751 
	C293.311462,239.329056 293.392914,238.012344 299.039551,232.647079 
	C302.073975,229.763855 306.011566,230.337189 309.781555,234.196182 
	C312.558380,237.038559 315.243469,239.981644 318.159027,242.674576 
	C321.901093,246.130936 323.028687,249.994614 320.427521,254.869415 
	C315.105316,255.926971 311.562531,259.003876 308.201447,262.558990 
	C300.706268,270.486816 292.714172,277.930756 285.134247,285.773224 
	C276.055573,295.166351 267.245300,304.818542 258.369904,314.874634 
z"/>
<path fill="#D79310" opacity="1.000000" stroke="none" 
	d="
M274.729431,244.161316 
	C279.056030,251.942596 279.046936,251.933670 272.365875,258.747559 
	C269.241699,261.933868 266.201050,265.202820 263.050354,268.362305 
	C258.407593,273.018036 254.130875,272.723969 249.168900,268.173859 
	C246.938904,266.128967 245.494766,263.087006 242.102295,262.592957 
	C241.935760,263.008240 241.993057,262.990540 241.987274,263.020538 
	C240.921707,261.981598 240.371002,260.553955 239.187057,259.189606 
	C238.957413,258.968506 239.054794,258.967346 239.086060,259.004395 
	C238.372604,256.573212 236.348984,255.138626 234.481155,253.173859 
	C234.721024,245.977386 238.578842,244.011459 244.608826,247.749695 
	C246.600418,248.984360 248.740570,249.667236 251.322189,250.277237 
	C254.126923,250.565918 256.675354,251.336487 258.897034,248.797928 
	C261.765686,244.839737 266.496307,243.919357 269.844360,240.601059 
	C272.166992,240.920212 271.937500,243.877823 274.510803,244.156952 
	C274.832733,244.254456 274.759857,244.196548 274.729431,244.161316 
z"/>
<path fill="#DE9C12" opacity="1.000000" stroke="none" 
	d="
M212.747665,223.788208 
	C212.623734,227.948730 209.669693,230.311478 207.392838,233.062622 
	C206.135025,234.582443 204.323547,235.725922 203.355759,237.385498 
	C201.735306,240.164291 199.649399,243.186676 204.313431,245.577621 
	C205.777954,246.328384 206.633667,248.266739 208.031021,249.905350 
	C209.808655,253.553741 212.270187,256.253510 215.068665,258.572510 
	C217.733490,260.780762 217.325897,262.512634 214.946198,264.524536 
	C213.445007,265.793701 212.234024,267.403473 210.748642,268.694580 
	C208.151657,270.951843 204.876266,270.379730 203.212372,268.283600 
	C200.509872,264.879028 197.239716,262.106720 194.400406,258.892487 
	C188.302094,251.988892 188.259872,248.253937 194.604492,241.072632 
	C195.115707,240.787552 195.302597,240.648148 195.719543,240.245361 
	C195.949615,239.981995 195.959488,239.958145 195.971802,239.954254 
	C196.158737,239.797531 196.333374,239.644699 196.730026,239.223770 
	C196.952026,238.955673 197.000000,238.997864 196.976395,238.974884 
	C197.227875,238.767258 197.473984,238.549820 197.828522,238.094528 
	C197.965927,237.889465 197.970016,237.968109 197.930679,237.969742 
	C198.178589,237.793655 198.428528,237.573013 198.795746,237.112762 
	C199.139755,236.640747 199.334106,236.371140 199.773941,236.031799 
	C200.175247,235.811859 200.331070,235.661621 200.717224,235.282562 
	C200.947556,235.053741 200.940964,234.955292 200.990143,234.951294 
	C201.203918,234.786560 201.368530,234.625809 201.748627,234.195435 
	C201.964111,233.925842 201.988846,233.987000 201.959366,233.972198 
	C202.213272,233.780334 202.463379,233.564697 202.818893,233.104401 
	C202.957581,232.898315 202.963135,232.971130 202.926697,232.973450 
	C203.183655,232.816223 203.431595,232.603653 203.797974,232.154190 
	C206.081360,229.705429 208.200836,227.440552 210.621429,225.032578 
	C211.111115,224.762909 211.299652,224.636353 211.706406,224.248215 
	C211.924606,223.986649 211.932953,223.946671 211.953247,223.948822 
	C212.150650,223.823608 212.327744,223.696259 212.747665,223.788208 
z"/>
<path fill="#D79310" opacity="1.000000" stroke="none" 
	d="
M258.536011,315.143616 
	C257.832886,312.328766 258.461945,309.691223 260.782562,307.984497 
	C265.947296,304.186066 269.737579,299.035950 273.897766,294.356750 
	C285.310425,281.520233 298.095886,270.069733 309.910156,257.652740 
	C311.387146,256.100464 313.305786,254.978027 314.926514,253.550568 
	C317.032104,251.696075 318.483307,252.398148 319.890930,254.814117 
	C317.007568,261.097015 311.416016,264.898132 306.823700,269.533417 
	C292.491119,283.999908 277.773468,298.084351 263.365356,312.477356 
	C261.974915,313.866302 260.545319,314.513092 258.536011,315.143616 
z"/>
<path fill="#DE9C12" opacity="1.000000" stroke="none" 
	d="
M252.272156,251.766159 
	C248.312317,253.060745 245.497925,251.180405 242.562912,249.274780 
	C238.573349,246.684525 236.058868,247.720398 234.488953,252.555283 
	C233.563705,249.384537 234.456497,247.128845 237.460632,244.460800 
	C241.709229,240.687546 245.563538,236.378311 249.841675,232.535461 
	C253.606888,229.153320 257.746979,228.792923 261.583679,232.195633 
	C264.394226,234.688232 266.985748,237.427780 269.918945,240.259491 
	C270.046387,243.375092 268.682007,245.505264 265.917938,246.425705 
	C263.819977,247.124283 262.372711,248.695251 260.261414,249.914520 
	C257.578674,251.126083 254.646561,249.378586 252.272156,251.766159 
z"/>
<path fill="#DE9C12" opacity="1.000000" stroke="none" 
	d="
M214.639038,221.029892 
	C215.422791,221.172058 216.185989,221.390488 215.950241,222.085159 
	C215.815704,222.481598 215.051086,222.664185 214.290710,222.968430 
	C213.858551,222.824448 213.705841,222.655106 213.759277,222.212799 
	C213.957993,221.579971 214.104462,221.300873 214.639038,221.029892 
z"/>
<path fill="#DC9812" opacity="1.000000" stroke="none" 
	d="
M203.709656,232.042282 
	C203.764908,232.233932 203.539322,232.470245 203.087677,232.827499 
	C203.079300,232.688599 203.268356,232.401428 203.709656,232.042282 
z"/>
<path fill="#DC9812" opacity="1.000000" stroke="none" 
	d="
M195.709900,240.050278 
	C195.764069,240.234375 195.550140,240.459793 195.118317,240.792603 
	C194.993881,240.580231 195.174332,240.310760 195.709900,240.050278 
z"/>
<path fill="#D79310" opacity="1.000000" stroke="none" 
	d="
M211.683838,224.037842 
	C211.749130,224.236725 211.541443,224.456329 211.112061,224.767487 
	C210.969391,224.540329 211.142899,224.273514 211.683838,224.037842 
z"/>
<path fill="#DC9812" opacity="1.000000" stroke="none" 
	d="
M196.722748,239.046265 
	C196.781021,239.217148 196.579880,239.452911 196.166351,239.806641 
	C196.030457,239.601913 196.200241,239.330765 196.722748,239.046265 
z"/>
<path fill="#DC9812" opacity="1.000000" stroke="none" 
	d="
M197.715118,237.977280 
	C197.778778,238.160110 197.566223,238.409058 197.140533,238.794098 
	C197.123306,238.656296 197.293823,238.360703 197.715118,237.977280 
z"/>
<path fill="#DC9812" opacity="1.000000" stroke="none" 
	d="
M198.688034,236.989655 
	C198.754700,237.185791 198.533508,237.434036 198.086578,237.813232 
	C198.071106,237.670563 198.250885,237.369751 198.688034,236.989655 
z"/>
<path fill="#DC9812" opacity="1.000000" stroke="none" 
	d="
M200.728256,235.127350 
	C200.781937,235.294510 200.588303,235.510147 200.193039,235.831360 
	C200.074280,235.638687 200.237473,235.384979 200.728256,235.127350 
z"/>
<path fill="#DC9812" opacity="1.000000" stroke="none" 
	d="
M201.735962,234.022400 
	C201.799393,234.188492 201.607101,234.429092 201.213257,234.797485 
	C201.045013,234.586166 201.201172,234.310043 201.735962,234.022400 
z"/>
<path fill="#DC9812" opacity="1.000000" stroke="none" 
	d="
M202.698761,232.974701 
	C202.769653,233.170517 202.554153,233.418777 202.120483,233.800262 
	C202.099899,233.655304 202.269913,233.353195 202.698761,232.974701 
z"/>
<path fill="#D79310" opacity="1.000000" stroke="none" 
	d="
M213.746155,222.053406 
	C213.975815,222.115463 213.986221,222.291061 214.003937,222.730225 
	C214.011261,222.993790 213.528717,223.010300 213.288116,223.003601 
	C213.076096,222.644440 213.235886,222.367798 213.746155,222.053406 
z"/>
<path fill="#D79310" opacity="1.000000" stroke="none" 
	d="
M212.998596,223.766708 
	C212.820541,224.002441 212.650558,223.997421 212.227081,223.971680 
	C212.045471,223.611008 212.228485,223.348526 212.759796,223.103851 
	C212.997025,223.044205 213.006683,223.525940 212.998596,223.766708 
z"/>
<path fill="#010000" opacity="1.000000" stroke="none" 
	d="
M238.561249,259.155273 
	C241.611496,258.785950 241.549988,261.394867 242.377991,262.866180 
	C239.342468,263.221039 239.323517,260.695190 238.561249,259.155273 
z"/>
<path fill="#000000" opacity="1.000000" stroke="none" 
	d="
M252.334412,252.158966 
	C250.208755,248.609802 253.930328,247.768829 255.243195,246.778503 
	C256.653931,245.714386 257.758942,248.884445 259.644287,249.883743 
	C258.059326,252.583435 256.877594,257.365631 252.334412,252.158966 
z"/>
</svg>